# xmcd CD database file
#
# Track frame offsets:
#	150
#	24263
#	77004
#	97434
#	113000
#	133793
#	151520
#	183244
#	203431
#	219635
#
# Disc length: 3530 seconds
#
# Revision: 0
# Processed by: cddbd v1.5.1PL0 Copyright (c) Steve Scherf et al.
# Submitted via: CDex 1.50
#
DISCID=790dc80a
DTITLE=Pedro Iturralde and Donna Hightower - Festival de Jazz Vitoria 1987
DYEAR=1987
DGENRE=Jazz
TTITLE0=Mr. PC
TTITLE1=Impressions
TTITLE2=Sometimes I feel like a motherless child
TTITLE3=I've got you under my skin
TTITLE4=Lush life
TTITLE5=Send me somewhere to love
TTITLE6=Georgia on my mind
TTITLE7=Write me one sweet letter
TTITLE8=Baby get lost
TTITLE9=Les feuilles mortes
EXTD=YEAR: 1987
EXTT0=
EXTT1=
EXTT2=
EXTT3=
EXTT4=
EXTT5=
EXTT6=
EXTT7=
EXTT8=
EXTT9=
PLAYORDER=
